/* XPM */
static char *machineball[]={
"32 32 328 2",
"Qt c None",
"df c #282828",
"de c #292929",
"c9 c #2a2a2a",
"c6 c #2b2b2b",
"dd c #2c2c2c",
"c7 c #2d2d2d",
"db c #2f2f2f",
"c5 c #303030",
"by c #313131",
"c8 c #323131",
"c0 c #323232",
"bR c #333333",
"cV c #343434",
"bg c #353535",
"aW c #363636",
"c2 c #373737",
"dc c #383838",
"c4 c #393939",
"ck c #3a3a3a",
"cU c #3b3b3b",
"d. c #3c3c3c",
".Y c #3d3d3d",
"#w c #3e3e3e",
"ai c #3f3f3f",
"cK c #404040",
"aB c #414141",
"cL c #424242",
"bQ c #434343",
"cx c #444444",
"#M c #454545",
".q c #464646",
".D c #474747",
"d# c #484848",
"da c #494949",
".e c #4a4a4a",
".O c #4b4b4b",
"cJ c #4c4c4c",
"#1 c #4d4d4d",
"bx c #4e4e4e",
"aX c #4f4f4f",
".p c #505050",
".d c #515151",
"ah c #525252",
"cT c #535353",
"bP c #545454",
".c c #555555",
"aV c #565656",
".b c #575757",
"#k c #585858",
".o c #595959",
"c3 c #5a5a5a",
"cZ c #5b5b5b",
"#0 c #5c5c5c",
".a c #5d5d5d",
".C c #5e5e5e",
"c1 c #5f5f5f",
".# c #606060",
".X c #616161",
".n c #626262",
"bf c #636363",
"aA c #646464",
"aU c #656565",
"#j c #666666",
"#L c #676767",
"## c #686868",
".m c #696969",
".B c #6a6a6a",
".k c #6b6b6b",
".f c #6c6c6c",
".l c #6d6d6d",
".r c #6e6e6e",
".W c #6f6f6f",
".g c #707070",
".Z c #717070",
".A c #717171",
".j c #727272",
"cX c #737272",
"be c #737373",
".h c #747474",
".P c #757575",
".i c #767676",
".s c #777777",
"cw c #787676",
".x c #787878",
".V c #797979",
".w c #7a7a7a",
".z c #7b7b7b",
".J c #7c7c7c",
"aY c #7d7d7d",
".y c #7e7e7e",
".N c #7f7f7f",
".t c #808080",
"cW c #818080",
".M c #818181",
"#a c #828282",
"cY c #838282",
".u c #838383",
".v c #848484",
"cO c #857a7a",
".K c #858585",
".L c #868686",
"cI c #878585",
"cS c #878686",
"#l c #878787",
".E c #888888",
".I c #898989",
".6 c #8a8989",
"#K c #8a8a8a",
"aC c #8b8b8b",
"bd c #8c8a8a",
".F c #8c8c8c",
"cj c #8d8c8c",
".H c #8d8d8d",
"cR c #8e8787",
".G c #8e8e8e",
"cM c #8f8c8c",
".U c #8f8f8f",
"cv c #907e7e",
"cH c #908686",
"#J c #908e8e",
"ag c #909090",
"#x c #918e8e",
".T c #919191",
"cN c #928989",
"b8 c #929090",
"#b c #929292",
"cl c #938e8e",
"#. c #939393",
"cP c #948888",
"ci c #948989",
"cQ c #948a8a",
"bh c #949494",
"#g c #958888",
"cy c #959191",
".5 c #959494",
".Q c #959595",
".S c #969696",
".R c #979797",
"b9 c #988181",
"aZ c #989494",
"bS c #989797",
".0 c #989898",
".9 c #999999",
"cG c #9a8080",
".7 c #9a9a9a",
"aD c #9b9797",
"bz c #9b9999",
".4 c #9b9b9b",
"#Z c #9c9a9a",
".8 c #9c9b9b",
".3 c #9c9c9c",
"bw c #9d9c9c",
".1 c #9d9d9d",
"bc c #9e8b8b",
"cz c #9e8f8f",
"#f c #9e9494",
"b7 c #9e9797",
"#v c #9e9d9d",
".2 c #9e9e9e",
"#d c #9f9d9d",
"aT c #9f9e9e",
"#c c #9f9f9f",
"#e c #a29c9c",
"az c #a2a0a0",
"#m c #a3a1a1",
"aj c #a3a3a3",
"#Y c #a49595",
"bO c #a49b9b",
"#i c #a49d9d",
"#2 c #a4a4a4",
"#N c #a5a4a4",
"ch c #a67878",
"#h c #a69a9a",
"bT c #a69b9b",
"b6 c #a78b8b",
"#u c #a79c9c",
"bN c #a88989",
"#I c #a89696",
"b5 c #a97f7f",
"bv c #aa9c9c",
"cF c #ab7b7b",
"cu c #ab7d7d",
"af c #aba3a3",
"cA c #ac8686",
"#n c #aca0a0",
"cC c #ad7070",
"cm c #ad9090",
"aS c #ad9a9a",
"bu c #b08a8a",
"#y c #b09999",
"ba c #b19292",
"#t c #b19595",
"bA c #b19898",
"bb c #b28080",
"aE c #b29090",
"ay c #b2a2a2",
"#3 c #b2a9a9",
"cE c #b57979",
"ak c #b5a1a1",
"#O c #b5a3a3",
"a0 c #b68f8f",
"#o c #b69797",
"bW c #b77272",
"cg c #b77474",
"cB c #b77c7c",
"cD c #b87a7a",
"aR c #b88787",
"bi c #b99797",
"cq c #ba7171",
"#r c #ba7878",
"bU c #ba8f8f",
"ct c #bb7979",
"#X c #bb8888",
"a5 c #bb9494",
"ax c #bc9191",
"bD c #bd8989",
"cn c #be8383",
"#q c #bf7f7f",
"ae c #bf9e9e",
"c. c #c08181",
"#H c #c08d8d",
"bn c #c09191",
"#p c #c18b8b",
"cc c #c27676",
"cf c #c37b7b",
"cs c #c37c7c",
"cp c #c47b7b",
"#s c #c58484",
"#6 c #c59292",
"co c #c67e7e",
"cr c #c77d7d",
"b0 c #c77f7f",
"#W c #c88080",
"b1 c #c88484",
"bX c #c97f7f",
"c# c #c98080",
"ce c #ca8080",
"#z c #ca9292",
"cb c #cb8080",
"a1 c #cb8c8c",
"#D c #cc7e7e",
"bH c #cc8b8b",
"aF c #cc8d8d",
"#P c #cc9292",
"aI c #cca3a3",
"ca c #cd8282",
"bE c #cd8f8f",
"bK c #cd9797",
"cd c #ce8383",
"ad c #ce9898",
"bY c #cf8b8b",
"a. c #cf9090",
"bj c #cf9292",
"bL c #cf9797",
"a3 c #cfa7a7",
"#4 c #cfa9a9",
"#Q c #d08585",
"#G c #d08a8a",
"av c #d09c9c",
"#C c #d18282",
"#V c #d18484",
"a7 c #d18a8a",
"bB c #d1a1a1",
"aL c #d28c8c",
"au c #d29e9e",
"al c #d39a9a",
"#R c #d48585",
"#E c #d48787",
"#F c #d58989",
"br c #d59595",
"b4 c #d5bdbd",
"#T c #d68787",
"#A c #d68b8b",
"ar c #d69595",
"b3 c #d6bcbc",
"#B c #d88a8a",
"#U c #d98b8b",
"bs c #d99797",
"aO c #d99f9f",
"ao c #d9a2a2",
"aw c #d9c9c9",
"bF c #daadad",
"bp c #db9494",
"aP c #dba0a0",
"bl c #dba4a4",
"#S c #dc8c8c",
"#7 c #dc9595",
"a8 c #dc9797",
"b2 c #dcc2c2",
"bI c #dda3a3",
"a# c #de9a9a",
"bZ c #dfc0c0",
"aQ c #e0cece",
"bq c #e19e9e",
"bV c #e1c3c3",
"bM c #e3d0d0",
"aM c #e49d9d",
"#9 c #e4cfcf",
"at c #e4d2d2",
"#8 c #e6abab",
"aK c #e6dcdc",
"as c #e7a2a2",
"aJ c #e7dada",
"an c #e7e0e0",
"bt c #e9d1d1",
"a6 c #e9dede",
"aH c #e9e1e1",
"aq c #e9e2e2",
"ab c #ead0d0",
"bm c #ebe1e1",
"ac c #ecd0d0",
"aa c #ecd4d4",
"bo c #ece1e1",
"a4 c #ece5e5",
"bG c #ede4e4",
"b. c #eee4e4",
"b# c #eee5e5",
"a2 c #f1e9e9",
"#5 c #f2dede",
"bk c #f2e9e9",
"bC c #f2eded",
"ap c #f3e2e2",
"a9 c #f3eaea",
"aG c #f3ebeb",
"bJ c #f3eded",
"aN c #f5eaea",
"am c #f6eeee",
"QtQtQtQtQtQtQtQtQtQtQtQtQtQtQtQtQtQtQtQtQtQtQtQtQtQtQtQtQtQtQtQt",
"QtQtQtQtQtQtQtQtQtQtQtQtQt.#.a.b.c.d.eQtQtQtQtQtQtQtQtQtQtQtQtQt",
"QtQtQtQtQtQtQtQtQtQt.f.g.h.i.j.k.l.m.n.o.p.qQtQtQtQtQtQtQtQtQtQt",
"QtQtQtQtQtQtQtQt.r.s.t.u.v.u.w.x.y.z.i.A.B.C.p.DQtQtQtQtQtQtQtQt",
"QtQtQtQtQtQtQt.j.y.E.F.G.H.I.J.K.I.L.M.N.z.h.k.a.OQtQtQtQtQtQtQt",
"QtQtQtQtQtQt.P.L.G.Q.R.S.Q.G.t.G.T.U.H.I.K.M.V.W.X.O.YQtQtQtQtQt",
"QtQtQtQtQt.Z.u.T.0.1.2.3.4.5.6.7.8.9.R#..H.E.y.h##.c.qQtQtQtQtQt",
"QtQtQtQt.P.N#a#b.4.2#c#d#e#f#g#h#i#d.1.4.Q.H.v.h#j.n#k.qQtQtQtQt",
"QtQtQt.r.t#l.L.I.S#m#n#o#p#q#r#s#p#t#u#v.S.F.y.P.h.r.X.p#wQtQtQt",
"QtQtQt.P.L.T.S.T#x#y#z#A#B#C#D#E#F#G#H#I#J.L#K.I.M.h#L.b#MQtQtQt",
"QtQt.m.J.H.0#c#N#O#P#Q#R#S#T#R#U#B#V#W#X#Y#Z.R.G.v.x.k#0#1.YQtQt",
"QtQt.k.M.T.3#2#3#4#5#6#7#8#9a.a#aaabacadaeaf.3ag.u.V.r.nahaiQtQt",
"QtQt.r.v#b.3ajakalamanaoapaqarasatauavawaxayaz#.#l.J.gaA.caBQtQt",
"Qt#k.f.taC.TaDaEaFaGaHaIaJaKaLaMaNaOaPaQaRaSaT#..I.y.jaUaV#MaWQt",
"QtaX.a.laY.IaZa0a1a2a3a4a5a6a7a8a9b.b#babbbcbd.M.wbe.fbfaV#MbgQt",
"QtaV.k.JaCbh#dbibjbkblbmbnbobpbqbkbrbsbtbubvbw#..E.J.l.abx.YbyQt",
"QtaV.f.J.I.TbzbAbBbCbDbEbFbGbHbIbJbKbLbMbNbO.3bhaC.t.haUbPbQbRQt",
"QtbP.m.x#a.FbSbTbUbVbWbXbYbZb0b1b2b3b4b5b6b7#.aC.u.w.W.#.paibRQt",
"Qt.p.#.W.J.I#bb8b9c.c#cacbcccdcdcecfcgchcicj.L.N.w.j#L.o.eckbyQt",
"QtQt.b##.i.M.M.Mclcmcncocpcqcrb0csctcucvcw.w.y.V.A.m.C.dcxaWbyQt",
"QtQt.O.a.k.W.h.u.HcyczcAcBcCcDcEcFcGcHcIaY.A.r.W.B.n#kcJcKbgQtQt",
"QtQtcL.d.a#0.W.J#a.K.IcMcNcOcPcQcRcS#l.uaY.PaU.n.n.acT.DcUcVQtQt",
"QtQtQt#M#1aVaU.r.h.w.y.McWcXcY#l.K.u#a.N.wbe##cZ.bbP.OcKaWc0QtQt",
"QtQtQtcUcK#1.bc1#j.k.lbe.h#jbe.JaY.w.x.V.h.r#L#k.O.DaBc2c0QtQtQt",
"QtQtQtQtc2cx#1cTc3c1bf#L.B#0aU.f.r.W.f.B##aAc1.c.qc4cVc5QtQtQtQt",
"QtQtQtQtQtckcx.O.p.cc3cZ.a.ccZ.X.X.X.#c1.a.ocT.OcKc0c6c7QtQtQtQt",
"QtQtQtQtQtc8c2cK.q#1.d.c.obP.b#0.oaVaVaVcTbx.q#wbgc7c9QtQtQtQtQt",
"QtQtQtQtQtQtQtbgd.cLd#cJ.pbxbxbP.dbx#1.OdabQcUc0c7c7QtQtQtQtQtQt",
"QtQtQtQtQtQtQtQtbybgcUcK#Mcx#w.D.D#McL#wckaWdbc7QtQtQtQtQtQtQtQt",
"QtQtQtQtQtQtQtQtQtQtdbc0c2c2bRaWdcaWbRbydbc7QtQtQtQtQtQtQtQtQtQt",
"QtQtQtQtQtQtQtQtQtQtQtQtddc6dedfc9c9dec6QtQtQtQtQtQtQtQtQtQtQtQt",
"QtQtQtQtQtQtQtQtQtQtQtQtQtQtQtQtQtQtQtQtQtQtQtQtQtQtQtQtQtQtQtQt"};
