/* XPM */
static char *machineball[]={
"24 24 233 2",
"Qt c None",
"bM c #2c2c2c",
"bE c #2d2d2d",
"bH c #2e2e2e",
"bL c #2f2f2f",
"bB c #303030",
"bK c #313131",
"bx c #323232",
"bl c #333333",
"b. c #353535",
"bA c #363636",
"ap c #373737",
"aW c #383838",
"by c #393939",
"aF c #3a3a3a",
"#D c #3b3b3b",
"#W c #3c3c3c",
"bk c #3d3d3d",
"#a c #3f3f3f",
"bG c #404040",
"bJ c #414141",
"a9 c #424242",
"bI c #444444",
"bu c #454545",
"bt c #464646",
".0 c #474747",
".q c #484848",
".f c #494949",
".M c #4a4a4a",
"bC c #4c4c4c",
"#C c #4d4d4d",
".B c #4e4e4e",
"bF c #4f4f4f",
".e c #505050",
"aE c #515151",
"#V c #525252",
".p c #535353",
"aa c #545454",
"a8 c #555555",
"bD c #575757",
"b# c #585858",
".d c #595959",
"aG c #5a5a5a",
".Z c #5b5b5b",
"#n c #5c5c5c",
"bs c #5d5d5d",
"aV c #5e5e5e",
".c c #5f5f5f",
"ab c #606060",
"aq c #616161",
".A c #626262",
".b c #636363",
"#o c #656565",
"a# c #666666",
"#U c #676767",
".Y c #686868",
".# c #696969",
"bz c #6b6b6b",
"bw c #6c6c6c",
".a c #6d6d6d",
".o c #6e6e6e",
".g c #6f6f6f",
"bj c #707070",
".z c #717171",
"aH c #727272",
".L c #737373",
"bv c #747474",
"## c #757575",
".n c #767676",
".h c #777777",
".l c #787878",
"ar c #797979",
"a7 c #7a7a7a",
".m c #7b7b7b",
".k c #7c7c7c",
"a6 c #7d7a7a",
"aU c #7d7d7d",
"#E c #7e7e7e",
".i c #7f7f7f",
".N c #808080",
".j c #818181",
".y c #828282",
"bp c #837d7d",
"bm c #838282",
".r c #838383",
".v c #848484",
".w c #858585",
"bo c #868181",
"#T c #868686",
".X c #878787",
"bi c #888383",
"bn c #888686",
".K c #888888",
"br c #898686",
".G c #898888",
".x c #898989",
".C c #8a8a8a",
".1 c #8b8b8b",
"bq c #8c8787",
"ba c #8c8b8b",
".u c #8c8c8c",
".s c #8d8d8d",
"#X c #8e8b8b",
"#m c #8e8e8e",
".t c #8f8f8f",
"a. c #909090",
"aT c #918f8f",
"#F c #919191",
"#l c #928a8a",
".W c #929292",
".H c #939292",
".J c #939393",
"bh c #948383",
"as c #959393",
".D c #959595",
".S c #978a8a",
"bb c #978d8d",
".I c #979797",
"a5 c #987b7b",
".2 c #989797",
"#b c #989898",
"ac c #999898",
".E c #999999",
".F c #9a9a9a",
".O c #9b9b9b",
"aS c #9d8b8b",
"aX c #9d8d8d",
"aI c #9d9696",
"#G c #9d9d9d",
"#9 c #9e9494",
"aD c #9e9a9a",
".V c #9e9c9c",
".Q c #9e9d9d",
".P c #9e9e9e",
"#p c #9f9f9f",
".R c #a09999",
"#c c #a19393",
"ao c #a19b9b",
"#B c #a19e9e",
"bg c #a27f7f",
"#. c #a29999",
".U c #a29c9c",
".T c #a39797",
"bc c #a48a8a",
"#S c #a7a2a2",
"#Y c #a88c8c",
"aC c #aa8d8d",
"bd c #ab7d7d",
"be c #ac7979",
"at c #ac9999",
".3 c #ad9f9f",
"#q c #ada6a6",
"aR c #af8080",
"bf c #b07e7e",
".9 c #b19797",
"#H c #b19d9d",
"aJ c #b28b8b",
"#3 c #b37d7d",
"#k c #b38787",
"an c #b38c8c",
"ad c #b39999",
"a4 c #b47b7b",
"#A c #b49b9b",
"#8 c #b88787",
"#M c #b88888",
"aY c #b98686",
"#R c #ba9494",
".4 c #bb9393",
".6 c #bd7c7c",
"ay c #bd8a8a",
"aQ c #be7c7c",
"#Q c #c09898",
"a1 c #c17878",
"a3 c #c17c7c",
".8 c #c18d8d",
"a0 c #c27a7a",
"aK c #c27e7e",
"ai c #c28989",
"aZ c #c48080",
"aP c #c48181",
".5 c #c48989",
"#Z c #c58e8e",
"#d c #c58f8f",
".7 c #c68585",
"aw c #c68e8e",
"au c #c69f9f",
"aN c #c87e7e",
"a2 c #c88080",
"#v c #c88a8a",
"#r c #c9a8a8",
"aL c #ca8080",
"aM c #cb8282",
"#z c #cb9595",
"ae c #cc9999",
"#K c #cc9f9f",
"aO c #cd8484",
"#j c #ce8888",
"#g c #d08181",
"al c #d19393",
"az c #d19a9a",
"#x c #d29797",
"#y c #d39494",
"#I c #d4a0a0",
"#s c #d5a4a4",
"#h c #d68888",
"#e c #d68a8a",
"#w c #d68e8e",
"#t c #d69393",
"#i c #d78a8a",
"#f c #d88888",
"#u c #d89797",
"ah c #dac4c4",
"#4 c #db9898",
"#2 c #dbc8c8",
"aj c #de9d9d",
"aB c #decbcb",
"av c #dfcaca",
"#1 c #e0cdcd",
"#N c #e19f9f",
"ag c #e1cccc",
"ax c #e2cccc",
"#0 c #e2cfcf",
"#7 c #e3cfcf",
"#J c #e3d2d2",
"aA c #e4cbcb",
"am c #e4cccc",
"ak c #e7d0d0",
"#6 c #e8d0d0",
"af c #e8d2d2",
"#5 c #e9d4d4",
"#P c #eacfcf",
"#O c #ead3d3",
"#L c #ead6d6",
"QtQtQtQtQtQtQtQtQtQtQtQtQtQtQtQtQtQtQtQtQtQtQtQt",
"QtQtQtQtQtQtQtQt.#.a.#.b.c.d.e.fQtQtQtQtQtQtQtQt",
"QtQtQtQtQtQt.g.h.i.j.k.l.m.n.o.b.p.qQtQtQtQtQtQt",
"QtQtQtQtQt.h.r.s.t.u.v.w.x.w.y.k.z.A.BQtQtQtQtQt",
"QtQtQtQt.n.C.D.E.F.D.G.H.I.J.t.K.i.L.A.MQtQtQtQt",
"QtQtQt.n.N.t.O.P.Q.R.S.T.U.V.F.W.X.n.Y.Z.0QtQtQt",
"QtQt.g.j.x.1.2.3.4.5.6.7.8.9#..W.K.k##.Y.p#aQtQt",
"QtQt##.1#b.O#c#d#e#f#g#h#i#j#k#l.J#m.N.g#n.0QtQt",
"Qt#o.k.W#p#q#r#s#t#u#v#w#x#y#z#A#B.J.y.L.A#C#DQt",
"Qt.b#E#F#G#H#I#J#K#L#M#N#O#P#Q#R#S.I#T.h#U#V#WQt",
"Qt.Z.o.N#X#Y#Z#0#1#2#3#4#5#6#7#8#9a..v.ha#aa#WQt",
"Qtab.h.1acadaeafagahaiajakalamanao.J.r.z.c#CapQt",
"Qtaqar.xasatauavawaxayaz#JaAaBaCaD.J.Kara#aEaFQt",
"QtaGaH.j.taIaJaKaLaMaNaOaPaQaRaSaT#TaU.zaV.MaWQt",
"Qt#V#Uar.j.vaXaYaZa0a1a2a3a4a5a6.ia7.z#oa8a9b.Qt",
"Qt.qb##U.o#Ebabbbcbdbebfbgbhbia7bj.a#U#n#CbkblQt",
"QtQt.qa8.b.L.kbmbnbobpbqbr.w.y.m.abs.Z.pbtapQtQt",
"QtQtbkbuaaab.#.g.L.L.o.kaU.marbvbw#n.BbtaFbxQtQt",
"QtQtQtby.qaE.d.c#o#obs.#bwbz.Y#oaqa8a9bAbBQtQtQt",
"QtQtQtQtbybubC.pb#aG.pbsbs.ZaGbD.ebtaWbEQtQtQtQt",
"QtQtQtQtQtbA#a.0.BaE.Ba8#VbF#C.fbGbAbHQtQtQtQtQt",
"QtQtQtQtQtQtbxbAbka9#aa9bIbJ#WbAbKbEQtQtQtQtQtQt",
"QtQtQtQtQtQtQtQtbHbBbLbLbBbLbHbMQtQtQtQtQtQtQtQt",
"QtQtQtQtQtQtQtQtQtQtQtQtQtQtQtQtQtQtQtQtQtQtQtQt"};
