/* XPM */
static char *machineball[]={
"48 48 538 2",
"Qt c None",
"gx c #242424",
"gu c #282828",
"gv c #292929",
"gt c #2a2a2a",
"gw c #2b2b2b",
"gs c #2c2c2c",
"d7 c #2d2d2d",
"eq c #2e2e2e",
"gr c #2f2f2f",
"gq c #303030",
"eM c #313131",
"cw c #323232",
"cW c #333333",
"dj c #343434",
"go c #353535",
"an c #363636",
"f7 c #373737",
"bk c #383838",
"#r c #393939",
"#v c #3a3a3a",
"aF c #3b3b3b",
".Z c #3c3c3c",
"gp c #3d3d3d",
"dI c #3e3e3e",
".G c #3f3f3f",
"#Q c #404040",
".f c #414141",
"bj c #424242",
".s c #434343",
"bL c #444444",
"#C c #454545",
".Y c #464646",
".e c #474747",
".r c #484848",
".F c #494949",
"cX c #4a4a4a",
".d c #4b4b4b",
"aZ c #4c4c4c",
".q c #4d4d4d",
".b c #4e4e4e",
".c c #4f4f4f",
"dH c #505050",
"bK c #515151",
".E c #525252",
".P c #535353",
".p c #545454",
"aY c #555555",
".a c #565656",
"#q c #575757",
"am c #585858",
"#. c #595959",
".# c #5a5a5a",
"#g c #5b5b5b",
".X c #5c5c5c",
"#B c #5d5d5d",
".m c #5e5e5e",
".o c #5f5f5f",
"a0 c #606060",
"#P c #616161",
".g c #626262",
".n c #636363",
".W c #646464",
".D c #656565",
"#f c #666666",
".h c #676767",
".0 c #686868",
".i c #696969",
".C c #6a6a6a",
".t c #6b6b6b",
".j c #6c6c6c",
".9 c #6d6d6d",
".k c #6e6e6e",
".l c #6f6f6f",
".u c #707070",
".1 c #717171",
".O c #727272",
".B c #737373",
"gk c #746f6f",
".A c #747474",
"## c #757575",
".v c #767676",
".M c #777777",
".w c #787878",
"#p c #797979",
"fy c #7a7676",
".x c #7a7a7a",
".y c #7b7b7b",
".z c #7c7c7c",
".N c #7d7d7d",
".L c #7e7e7e",
".Q c #7f7f7f",
"#z c #807979",
".H c #808080",
".I c #818181",
".J c #828282",
".K c #838383",
".V c #848484",
"fz c #848585",
".U c #858585",
"aE c #868484",
".8 c #868686",
"gg c #878484",
".R c #878787",
".S c #888888",
".T c #898989",
".7 c #8a8a8a",
".2 c #8b8b8b",
"fQ c #8c8484",
".6 c #8c8c8c",
"f6 c #8d8989",
"#a c #8d8d8d",
"gj c #8e8989",
"cx c #8e8d8d",
"c. c #8e8e8e",
"fx c #8f6f6f",
"gn c #8f8b8b",
"gh c #8f8d8d",
".5 c #8f8f8f",
"cY c #908f8f",
".3 c #909090",
"gf c #918282",
"gm c #918d8d",
".4 c #919191",
"gl c #928d8d",
"#m c #929292",
"#b c #939393",
"di c #948383",
"gi c #949292",
"#c c #949494",
"#e c #959595",
"fR c #959696",
"df c #968181",
"#d c #969696",
"fA c #969797",
"f5 c #978585",
"e6 c #979494",
"#o c #979797",
"eI c #988484",
"fk c #989090",
"fS c #989191",
"#n c #989898",
"cy c #998d8d",
"er c #999898",
"#s c #999999",
"eJ c #9a7070",
"f8 c #9a9393",
"dJ c #9a9999",
"#l c #9a9a9a",
"#A c #9b9696",
"#h c #9b9b9b",
"em c #9c8282",
"#k c #9c9c9c",
"#w c #9c9d9d",
"dG c #9d9c9c",
"#j c #9d9d9d",
"b9 c #9d9e9e",
"e7 c #9e8181",
"ao c #9e8989",
"#u c #9e9e9e",
"#J c #9f6d6d",
"#y c #9f9d9d",
"#i c #9f9f9f",
"cZ c #a09191",
"bw c #a09696",
"#6 c #a09f9f",
"#t c #a0a0a0",
"ga c #a16464",
"bJ c #a1a1a1",
"ep c #a1a2a2",
"f9 c #a28a8a",
"fj c #a28b8b",
"fB c #a29a9a",
"es c #a29d9d",
"#x c #a2a1a1",
"#D c #a2a2a2",
"cV c #a2a3a3",
"f4 c #a37b7b",
"ge c #a37f7f",
"fP c #a38383",
"d3 c #a38686",
"#G c #a39b9b",
"#F c #a39f9f",
"eL c #a3a0a0",
"al c #a3a1a1",
"#R c #a3a3a3",
"dD c #a47777",
"#O c #a4a0a0",
"d6 c #a4a4a4",
"fT c #a58d8d",
"e5 c #a59a9a",
"#E c #a5a5a5",
"#N c #a6a0a0",
"cv c #a6a7a7",
"c# c #a7a1a1",
"#7 c #a7a6a6",
"bl c #a7a7a7",
"aX c #a89696",
"#5 c #a89f9f",
"#S c #a8a6a6",
"a1 c #a8a8a8",
"eo c #a9a1a1",
"bI c #a9a7a7",
"aD c #aa9393",
"ak c #aa9898",
"#M c #aa9b9b",
"aG c #aaaaaa",
"#H c #ab9898",
"eN c #ab9f9f",
"#T c #aba4a4",
"gd c #ac7c7c",
"#I c #ac8a8a",
"dK c #ac9c9c",
"d5 c #aca1a1",
"bi c #aca4a4",
"bM c #aca8a8",
"fY c #ad6565",
"e3 c #ad7575",
"#L c #ad9191",
"eK c #ad9494",
"bm c #adacac",
"dg c #ae7474",
"cs c #ae8080",
"dF c #ae9c9c",
"fw c #af7272",
"cS c #af8181",
"g. c #af8787",
"#U c #af9999",
"cU c #af9f9f",
"b8 c #afa6a6",
"bV c #b0aaaa",
"fI c #b16868",
"gc c #b17a7a",
"dk c #b1a1a1",
"fi c #b27a7a",
"g# c #b27b7b",
"#4 c #b29393",
"cu c #b2a5a5",
"aH c #b2a7a7",
"eZ c #b37272",
"f3 c #b37878",
"bx c #b38585",
"fC c #b38989",
"a2 c #b3afaf",
"fq c #b46969",
"fO c #b47979",
"e4 c #b48484",
"#Z c #b56a6a",
"gb c #b57777",
"dh c #b57a7a",
"#K c #b58b8b",
"#8 c #b5a4a4",
"fh c #b66e6e",
"fU c #b68585",
"en c #b69393",
"fg c #b76f6f",
"e0 c #b77777",
"cf c #b78080",
"e8 c #b87373",
"aW c #b87d7d",
"e2 c #b87f7f",
"b6 c #b88585",
"eR c #b96e6e",
"f2 c #ba7777",
"fl c #ba8f8f",
"d4 c #ba9090",
"cE c #ba9595",
"et c #ba9898",
"eQ c #bb7272",
"bH c #bba4a4",
"fc c #bc7070",
"fv c #bc7575",
"ct c #bc8f8f",
"bn c #bca8a8",
"aV c #bd7373",
"fN c #bd7777",
"f1 c #bd7878",
"ez c #bdb1b1",
"ad c #be7171",
"fV c #be7d7d",
"cT c #be8989",
"aj c #be8e8e",
"#V c #be8f8f",
"dr c #beb4b4",
"f0 c #bf7878",
"e1 c #bf8383",
"#3 c #bf8d8d",
"fZ c #c07878",
"fX c #c07979",
"eY c #c07b7b",
"cz c #c07d7d",
"ew c #c0b8b8",
"ff c #c17878",
"aC c #c18585",
"ap c #c18a8a",
"bR c #c1baba",
"eV c #c27878",
"fH c #c27979",
"fu c #c27b7b",
"d8 c #c29191",
"b7 c #c29b9b",
"#Y c #c37979",
"fM c #c37b7b",
"fW c #c37d7d",
"fD c #c38080",
"eO c #c38d8d",
"fL c #c47c7c",
"b. c #c47d7d",
"bN c #c49b9b",
"bh c #c49c9c",
"eS c #c57878",
"fF c #c57c7c",
"eB c #c57e7e",
"dE c #c58d8d",
"fG c #c67d7d",
"fK c #c67e7e",
"fm c #c68282",
"dX c #c6a5a5",
"ce c #c6bbbb",
"av c #c77878",
"cA c #c77a7a",
"b# c #c77b7b",
"fp c #c77c7c",
"fJ c #c77e7e",
"c0 c #c78181",
"#2 c #c78484",
"ca c #c78e8e",
"cI c #c7aeae",
"cj c #c7afaf",
"cH c #c7bcbc",
"e9 c #c87d7d",
"fE c #c87f7f",
"ft c #c88080",
"#1 c #c88181",
"#W c #c88686",
"aI c #c89393",
"dQ c #c8b7b7",
"ac c #c97b7b",
"aU c #c97d7d",
"bc c #c97f7f",
"#0 c #c98080",
"#X c #c98282",
"c2 c #c99696",
"#9 c #c99999",
"c7 c #c9a2a2",
"cJ c #ca8080",
"eP c #ca8181",
"b4 c #ca9c9c",
"dy c #caa5a5",
"b5 c #cac2c2",
"aK c #cb7c7c",
"eX c #cb7e7e",
"bb c #cb7f7f",
"fo c #cb8181",
"fs c #cb8282",
"ea c #cb8989",
"eu c #cb9999",
"dM c #cb9b9b",
"dn c #cb9d9d",
"ex c #cbb3b3",
"bW c #cbb8b8",
"d. c #cc8181",
"fn c #cc8282",
"cB c #cc9595",
"c9 c #ccb2b2",
"ci c #ccc6c6",
"aL c #cd7e7e",
"eW c #cd8181",
"bd c #cd8383",
"dL c #cd8c8c",
"dB c #cd9292",
"ds c #cd9393",
"b0 c #cd9f9f",
"aJ c #ce8282",
"fe c #ce8383",
"fr c #ce8484",
"ai c #ce8989",
"e# c #ce8d8d",
"bF c #ce9c9c",
"du c #ceb3b3",
"br c #cebfbf",
"eE c #cecaca",
"ba c #cf7f7f",
"au c #cf8080",
"c1 c #cf8282",
"f. c #cf8484",
"eU c #cf8585",
"aB c #cf8686",
"cF c #cfa3a3",
"ed c #cfb8b8",
"fb c #d08484",
"f# c #d08585",
"a3 c #d0a4a4",
"dT c #d0b5b5",
"dc c #d0c3c3",
"af c #d18484",
"fa c #d18585",
"fd c #d18686",
"dl c #d18c8c",
"aP c #d28282",
"a9 c #d28a8a",
"bS c #d28d8d",
"bG c #d29898",
"eg c #d2b6b6",
"c8 c #d2c5c5",
"aO c #d38383",
"ae c #d38686",
"ag c #d38787",
"eT c #d38888",
"a. c #d38a8a",
"b2 c #d39494",
"b3 c #d39797",
"e. c #d3acac",
"eC c #d3b0b0",
"eA c #d3b4b4",
"c6 c #d3c5c5",
"b1 c #d3c8c8",
"ab c #d48686",
"cb c #d48888",
"ah c #d48989",
"a8 c #d48a8a",
"bX c #d48e8e",
"da c #d4a9a9",
"bQ c #d4cccc",
"cd c #d4cdcd",
"a7 c #d58686",
"aT c #d58787",
"aA c #d58989",
"ck c #d58b8b",
"a6 c #d58c8c",
"aq c #d68b8b",
"be c #d68c8c",
"cn c #d6a4a4",
"dC c #d6c7c7",
"a# c #d78888",
"aa c #d78989",
"dA c #d79090",
"ev c #d7cece",
"ax c #d88a8a",
"az c #d88b8b",
"d9 c #d89393",
"dR c #d89999",
"aS c #d98a8a",
"bO c #d98f8f",
"bs c #d99090",
"eF c #d9d0d0",
"aw c #da8b8b",
"ei c #da9191",
"d# c #db8b8b",
"aR c #db8c8c",
"ay c #db8e8e",
"dm c #db8f8f",
"dv c #db9090",
"cc c #db9e9e",
"cR c #dbd1d1",
"ar c #dc8d8d",
"as c #dc8e8e",
"dU c #dc9191",
"bg c #dc9393",
"eD c #dcd8d8",
"cL c #dd8d8d",
"at c #dd8e8e",
"cO c #dd9d9d",
"cM c #ddb2b2",
"dt c #ddcece",
"do c #ddd2d2",
"eH c #ddd5d5",
"db c #ddd7d7",
"aM c #de8f8f",
"ej c #de9797",
"dd c #ded1d1",
"c3 c #ded4d4",
"a5 c #df9a9a",
"bo c #dfa3a3",
"aN c #e09090",
"aQ c #e09191",
"by c #e09797",
"ef c #e09999",
"dz c #e0d1d1",
"cr c #e0d2d2",
"co c #e0d4d4",
"cK c #e19090",
"cq c #e19e9e",
"ek c #e1a3a3",
"dN c #e1d1d1",
"cC c #e1dada",
"ee c #e29393",
"d0 c #e29696",
"bf c #e29898",
"d1 c #e29c9c",
"bP c #e2a4a4",
"dY c #e2d2d2",
"bv c #e2d6d6",
"de c #e2d7d7",
"dZ c #e39595",
"dP c #e3d1d1",
"bq c #e3e1e1",
"dO c #e4a2a2",
"a4 c #e4a5a5",
"eb c #e4a9a9",
"bB c #e4dede",
"dW c #e59898",
"cQ c #e5aeae",
"eh c #e5d4d4",
"dq c #e5dede",
"dp c #e6b0b0",
"cG c #e6dbdb",
"dS c #e7d7d7",
"bC c #e7dddd",
"c5 c #e7e0e0",
"cp c #e89c9c",
"cg c #e8aaaa",
"eG c #e8dfdf",
"cD c #e8e0e0",
"ey c #e8e5e5",
"bt c #e99e9e",
"dV c #ea9b9b",
"dx c #ea9c9c",
"cP c #eaaaaa",
"ec c #ecdfdf",
"cm c #ed9c9c",
"dw c #ed9d9d",
"bA c #edd8d8",
"el c #eddbdb",
"bE c #eedfdf",
"cN c #eee4e4",
"bT c #efa7a7",
"bD c #efe3e3",
"cl c #f1a1a1",
"bZ c #f1a5a5",
"d2 c #f1d9d9",
"bY c #f4a3a3",
"bz c #f4c3c3",
"bU c #f4e8e8",
"c4 c #f4e9e9",
"ch c #f6f1f1",
"bp c #f8ecec",
"bu c #f9d6d6",
"QtQtQtQtQtQtQtQtQtQtQtQtQtQtQtQtQtQtQtQtQtQtQtQtQtQtQtQtQtQtQtQtQtQtQtQtQtQtQtQtQtQtQtQtQtQtQtQt",
"QtQtQtQtQtQtQtQtQtQtQtQtQtQtQtQtQtQtQtQt.#.#.a.b.b.c.d.e.fQtQtQtQtQtQtQtQtQtQtQtQtQtQtQtQtQtQtQt",
"QtQtQtQtQtQtQtQtQtQtQtQtQtQtQtQt.g.h.i.j.k.l.h.m.g.n.o.#.p.q.r.sQtQtQtQtQtQtQtQtQtQtQtQtQtQtQtQt",
"QtQtQtQtQtQtQtQtQtQtQtQtQtQt.t.u.v.w.x.y.z.y.k.k.A.B.l.C.D.o.#.E.F.GQtQtQtQtQtQtQtQtQtQtQtQtQtQt",
"QtQtQtQtQtQtQtQtQtQtQtQt.i.B.x.H.I.J.J.K.K.L.j.M.N.L.y.M.O.l.t.D.#.P.F.fQtQtQtQtQtQtQtQtQtQtQtQt",
"QtQtQtQtQtQtQtQtQtQtQt.j.M.Q.K.R.S.T.S.R.S.J.u.I.U.V.H.L.z.x.v.O.t.W.X.E.Y.ZQtQtQtQtQtQtQtQtQtQt",
"QtQtQtQtQtQtQtQtQt.0.1.y.K.S.2.3.3.4.5.6.6.R.v.7.6.7.8.V.J.I.Q.L.w.B.9.W#..d.GQtQtQtQtQtQtQtQtQt",
"QtQtQtQtQtQtQtQt.D##.H.8#a#b#c#d#e#c#b.4.5.J.N.3.3.6.7.2.6.S.U.V.H.x.v.l#f#g.b.GQtQtQtQtQtQtQtQt",
"QtQtQtQtQtQtQt.W.B.K.6.3#e#h#i#j#k#l#h#d#m.Q.7#n#o#n#e#c.4#a.7.8.K.z#p.O.t.W#q.Y#rQtQtQtQtQtQtQt",
"QtQtQtQtQtQt.i.O.w.R.4#e#s#j#t#i#l#l#k#u#h.L#c#k#k#j#j#s#o#e.5#a.T.K.N.v.k.D.a.b.Y#vQtQtQtQtQtQt",
"QtQtQtQtQt.0.w.Q.w.I#m#l#h#k#j#k#k#k#w#x#y#z#A#y#i#j#u#h#h#h#o#m.6.S.J.w.0.m.o#B.p#C#rQtQtQtQtQt",
"QtQtQtQtQt.u.Q.U.L#p.7#o#l#u#D#E#t#F#G#H#I#J#K#L#M#N#O#u#t#j#s#e.5.T.H.9#P.h.9.D#..q#QQtQtQtQtQt",
"QtQtQtQt.C.x.K.T.7.J.z.R#l#R#S#T#U#V#W#X#Y#Z#0#1#2#3#4#5#6#j#s#d.3.J.A.u.w.v.l.h.m.p.e#vQtQtQtQt",
"QtQtQtQt.u.Q.U#a.3#c.S.N#b#7#8#9a.a#aaabacadaeafagahaiajakal#o.7.y.z.8.R.8.L##.C.gam.b#QanQtQtQt",
"QtQtQt.h.w.K.7.4#o#i#u#d.TaoapaqarasatatauavawaxayazaAaBaCaDaE.N.7#e#d#a.T.Q.M.u.D#g.E.eaFQtQtQt",
"QtQtQt.C.z.S.4#n#j#t#RaGaHaIaJaKaLa#aMaNaOaPaQaRaSaTafaUaVaWaX#6#i#k#o.5.7.H#p.1.C.maYaZ.GQtQtQt",
"QtQta0.k.z.S#c#n#D#Ra1a2a3a4a5a6aSa7a8a9b.b#babbbcbdbebfbfbgbhbi#R#t#s.3.8.H.x.1.t.g#..bbjbkQtQt",
"QtQt.n.O.I.6#b#h#RblbmbnbobpbqbrbsbtbubvbwbxbybzbAbBbCbDbEbFbGbHbIbJ#l.4.S.Q.x.B.k.D#BbKbLbkQtQt",
"QtQt.W.A.K.2#b#k#t#EbMbNbObPbQbRbSbTbUbVbWbXbYbZb0b1b2b3b4b5b6b7b8#Eb9#e.2.U.L##.k#f.o.PbL#vQtQt",
"QtQt.W.B.Vc.#b#o#n#kc#cacbcccdcecfcgchcicjckclcmcncocpcpcqcrcsctcucv#t#cc..R.H.v.9#f.oaY.eaFcwQt",
"Qt.E.g.l.N.I.U.7.6cxcyczcAcBcCcDcEcFcGcHcIcJcKcLcMcNcOcPcQcRcScTcUcV#k#cc..U.L.w.l.0#B.a.F.ZcWQt",
"QtcX.P#q.o.C.A.N.RcYcZc0c1c2c3c4c5c6c7c8c9d.cLd#dadbdcdddedfdgdhdi.U.K.K.Q.L.y.v.1.0#B#qcX.GdjQt",
"Qt.q#B.j.w.K.5#o#k#RdkdldmdndodpdqdrdsdtdudvdwdxdydzbsdAdBdCdDdEdFdG#b.T.L.B.C#P#g#q.pdH.FdIcWQt",
"Qt.E.D.B.z.Uc.#m#edJdKdLbedMdNdOdPdQdRdSdTdUdVdWdXdYdZd0d1d2d3d4d5d6#u#n#m.2.K.M.9.W#..d.Gdjd7Qt",
"QtbK.g.O.z.K#a.4#e#s#Gd8d9e.bve#bXeaebeceda9eeefegeheiejekelemeneoep#j#s.4.2.V.z.1.i.o.p.r#veqQt",
"QtbK.g.l.x.J.T.6.3ereseteuevewexbceadPeyezeAeBeCeDeEeFeGeHeIeJeKeL#k#c#a.T.U.L.M.k.D#gbK.e.ZeMQt",
"QtdH.o.9.M.H.J.R#m#ldGeNeOePeQeReSaJeTeUeVeWeXePeYeZe0e1e2e3e4e5#l#e.3.7.8.I.x.A.j.n#qaZ.s#reMQt",
"Qt.q.X.h.l.M.J.7c.#s#ke6e7e8e9f.f#fafbaJfcfbfdf.febdfffgfhfifj#d#b.2.V.H.L.x.v.l.h#B.EcX.GaneMQt",
"QtQt.p.g.t.A.z.U.2.5.T.yfkflfmcJfnfod.fpfqcJfrfnfsftfufvfwfxfyfz.7.S.I.z.w.A.u.Ca0#q.q#CaFdjeMQt",
"QtQtaZ.X.h.1.M.H.8.x.w.5fAfBfCfDfEfFfGfHfIfJ#0fKfLfMfNfOfPfQ##.O#p.Q.N.w.B.l.i.n.X.p.F.fbkcweMQt",
"QtQt.Y.p.m.0.u.w.u.u.8.5.3fRfSfTfUfVfWfXfYfZf0f1f2f3f4f5f6.T.J##.h.O##.B.1.C.n.o#qdH.e.Gf7cwQtQt",
"QtQt.faZ.aa0.0#f#P.x.J.T.S.2.3#mf8f9g.g#gagbgcgdgegfgg.S.T.8.K.Q.1.D#f.j.t#f#P#g.PaZ.Y.ZancwQtQt",
"QtQtQt.s.c#..maY#f.A#p.I.K.K.U.T#aghgigjgkglgmgnf6.S.R.S.R.K.H.N.v.iama0#fa0.mambK.rbj#vdjcWQtQt",
"QtQtQt.Z.rbK.PaY#f.C.u.v.M.N.J.8.8.8.2.U.C.S.R.R.R.V.U.8.U.Q.N.x.v.ua0.p.X.X#q.EaZbLdIf7cWQtQtQt",
"QtQtQtQt.f.r#C.E#B.n.h.9.u###p.w#p.N.I.La0.L.V.U.8.K.K.H.H.N#p.M.A.u.i#q.cam.p.d.Y#QbkgocWQtQtQt",
"QtQtQtQt#v.GdI.b.P#qa0#f.h.i.l.9.1.v.w.v.p.l.y.H.H.N#p.M.y#p##.A.l.C.D#B.b#CcX.Y#QbkcWcwQtQtQtQt",
"QtQtQtQtQtanaF.raZbK#q.Xa0.n.W#f.C.k.1.udH.0.O.M.v.v.B.u.u.u.j.C.C.h#P.#bK#Qgpgp#rcWgqeMQtQtQtQt",
"QtQtQtQtQtgqanbj.r.qdH.p#q#g.m.g.n.W.h.ncX.X#f.i.t.j.j.C#f.h#f.n.ga0.#.paZ#QcWcWeMgrgrQtQtQtQtQt",
"QtQtQtQtQtQtgr#r#Q.Y.ddHbK.aam.#.X#g.m.maZ#q.g#P.n.g.g.g#Pa0.m#B.Xam.E.q.YdIcWgsgteqQtQtQtQtQtQt",
"QtQtQtQtQtQtQteMbkdIbL.r.d.cbK.pam#.#g.XdH.p.o#B#B#g#.#.#.#.am#q.P.ccX#C.G#rgqgugvQtQtQtQtQtQtQt",
"QtQtQtQtQtQtQtQtgqf7gp#Q#CcX.qdH.P#q.##..EdH.m#B#..a.paYaY.p.EbK.q.Y.f.Zancwd7gtQtQtQtQtQtQtQtQt",
"QtQtQtQtQtQtQtQtQtgqgo#vdIbj.YcX.q.c.PaYdH.Famam.PdH.b.c.b.q.qcX#C.G#rdjgrd7gsQtQtQtQtQtQtQtQtQt",
"QtQtQtQtQtQtQtQtQtQtgrcWf7#vgp.f#C.raZ.q.d.f.q.c.q.d.d.r.Y.Y#Cbjgpbkcweqd7d7QtQtQtQtQtQtQtQtQtQt",
"QtQtQtQtQtQtQtQtQtQtQtQtgqcwdjbk.Z.f#C.YbL#rbj.e.e.YbLbj.Ggp#rancWgrd7d7d7QtQtQtQtQtQtQtQtQtQtQt",
"QtQtQtQtQtQtQtQtQtQtQtQtQtgseqeMcWbkaFgp.ZeMangpgp#v#rbkancWeMgrd7gsd7QtQtQtQtQtQtQtQtQtQtQtQtQt",
"QtQtQtQtQtQtQtQtQtQtQtQtQtQtQtQtd7grgqeMcWd7gwcwcwgqgrd7d7gsgsgsgsQtQtQtQtQtQtQtQtQtQtQtQtQtQtQt",
"QtQtQtQtQtQtQtQtQtQtQtQtQtQtQtQtQtQtQtgtgtgvgxgxgugugvgugvQtQtQtQtQtQtQtQtQtQtQtQtQtQtQtQtQtQtQt",
"QtQtQtQtQtQtQtQtQtQtQtQtQtQtQtQtQtQtQtQtQtQtQtQtQtQtQtQtQtQtQtQtQtQtQtQtQtQtQtQtQtQtQtQtQtQtQtQt"};
