/* XPM */
static char *machineball[]={
"16 16 136 2",
"Qt c None",
"ac c #2f2f2f",
"#8 c #313131",
"af c #363636",
"ad c #373636",
"#R c #383737",
"ae c #383838",
"#9 c #393939",
"#7 c #3a3a3a",
"#1 c #3b3b3b",
"#0 c #3d3d3d",
"#H c #3e3e3e",
"a. c #414141",
".V c #454545",
".8 c #474747",
".x c #484848",
"#2 c #494949",
"#S c #4a4a4a",
"a# c #4b4b4b",
"#Q c #4c4c4c",
"#Z c #4d4d4d",
".o c #4e4e4e",
"#I c #4f4f4f",
"ab c #525252",
"aa c #535353",
".I c #555555",
"#3 c #565656",
".e c #575757",
"#G c #585858",
"#5 c #5c5c5c",
"#4 c #5d5d5d",
"#T c #5e5e5e",
"#v c #5f5f5f",
".w c #606060",
".d c #626262",
".n c #636363",
"#i c #646464",
"#u c #656565",
"#6 c #666666",
".7 c #676767",
".9 c #6b6b6b",
".c c #6c6c6c",
"#U c #6d6d6d",
".b c #6f6f6f",
".H c #707070",
".J c #737373",
"#V c #747272",
".a c #747474",
".# c #757575",
"#J c #767676",
".f c #777676",
".v c #777777",
".m c #787878",
"#Y c #797979",
"#w c #7a7a7a",
".U c #7c7c7c",
"#W c #7d7b7b",
"#X c #7d7d7d",
"#F c #7e7d7d",
"#t c #7e7e7e",
".6 c #807f7f",
".G c #818181",
".y c #828282",
".l c #838383",
".g c #858585",
"#E c #868080",
".j c #868686",
"#K c #888585",
"#j c #888787",
"#P c #898181",
".k c #898989",
"#x c #8a8888",
"#. c #8a8989",
".i c #8a8a8a",
".W c #8f8e8e",
".h c #8f8f8f",
"#s c #908e8e",
".K c #909090",
".F c #918e8e",
".T c #929191",
"#h c #938d8d",
"#O c #968484",
"#L c #968989",
".5 c #969292",
".u c #969696",
".p c #989797",
".r c #9a9292",
".s c #9c9393",
".t c #9d9999",
".q c #9d9b9b",
"#M c #9e7f7f",
"#k c #a09595",
".z c #a09696",
"#N c #a18484",
"#r c #a29191",
"#D c #a37c7c",
".L c #a49f9f",
"#y c #a58a8a",
".S c #a69999",
".E c #a99494",
"## c #a99696",
".X c #a99999",
"#g c #ac8f8f",
".4 c #b19797",
"#q c #b98f8f",
".A c #ba9494",
"#l c #bb9494",
"#C c #bc7d7d",
"#z c #bd8181",
".D c #be9090",
".M c #be9e9e",
"#n c #bf8989",
"#A c #c17a7a",
".B c #c18787",
"#m c #c38b8b",
".C c #c48888",
".R c #c48f8f",
"#B c #c68080",
"#p c #c69292",
".Y c #c79f9f",
"#a c #c89e9e",
"#o c #cc9090",
".N c #ce8e8e",
".O c #d08b8b",
"#d c #d29898",
".Q c #d38f8f",
".1 c #d69c9c",
".P c #d78e8e",
"#c c #dbc6c6",
".Z c #e1cdcd",
"#f c #e2cbcb",
".0 c #e2cdcd",
".3 c #e3cdcd",
"#b c #e3cece",
"#e c #e8cece",
".2 c #ead1d1",
"QtQtQtQtQtQtQtQtQtQtQtQtQtQtQtQt",
"QtQtQtQtQt.#.a.b.c.d.eQtQtQtQtQt",
"QtQtQt.f.g.h.i.j.k.l.m.n.oQtQtQt",
"QtQt.#.j.p.q.r.s.t.u.i.v.w.xQtQt",
"QtQt.y.h.z.A.B.C.D.E.F.G.H.IQtQt",
"Qt.J.K.L.M.N.O.P.Q.R.S.T.U.d.VQt",
"Qt.H.W.X.Y.Z.0.1.2.3.4.5.6.7.8Qt",
"Qt.9#.###a#b#c#d#e#f#g#h.U#i.VQt",
"Qt.9#j#k#l#m#n#o#p#q#r#s#t#u.VQt",
"Qt#v#w#x#y#z#A#B#C#D#E#F.b#G#HQt",
"Qt#I.d#J#K#L#M#N#O#P.m.9#v#Q#RQt",
"QtQt#S#T#U.a#V#W#X#Y.H#T#Z#0QtQt",
"QtQt#1#2#3#4#5.n#6#i#T#I#7#8QtQt",
"QtQtQt#9a.a##Iaaab#I.8#7acQtQtQt",
"QtQtQtQtQtadae#7#9af#8QtQtQtQtQt",
"QtQtQtQtQtQtQtQtQtQtQtQtQtQtQtQt"};
